<?xml version="1.0" encoding="UTF-8" standalone="no"?>
<svg
   xmlns:dc="http://purl.org/dc/elements/1.1/"
   xmlns:cc="http://creativecommons.org/ns#"
   xmlns:rdf="http://www.w3.org/1999/02/22-rdf-syntax-ns#"
   xmlns:svg="http://www.w3.org/2000/svg"
   xmlns="http://www.w3.org/2000/svg"
   xmlns:sodipodi="http://sodipodi.sourceforge.net/DTD/sodipodi-0.dtd"
   xmlns:inkscape="http://www.inkscape.org/namespaces/inkscape"
   width="42.607086mm"
   height="41.554924mm"
   viewBox="0 0 42.607086 41.554924"
   version="1.1"
   id="svg8"
   inkscape:version="1.0 (4035a4fb49, 2020-05-01)"
   sodipodi:docname="git-icon.svg">
  <defs
     id="defs2">
    <clipPath
       id="clipPath851"
       clipPathUnits="userSpaceOnUse">
      <path
         id="path849"
         d="M 0,551.986 H 530.973 V 0 H 0 Z" />
    </clipPath>
  </defs>
  <sodipodi:namedview
     id="base"
     pagecolor="#ffffff"
     bordercolor="#666666"
     borderopacity="1.0"
     inkscape:pageopacity="0.0"
     inkscape:pageshadow="2"
     inkscape:zoom="1.979899"
     inkscape:cx="20.189961"
     inkscape:cy="33.186093"
     inkscape:document-units="mm"
     inkscape:current-layer="layer1"
     inkscape:document-rotation="0"
     showgrid="false"
     inkscape:window-width="1920"
     inkscape:window-height="1017"
     inkscape:window-x="-8"
     inkscape:window-y="-8"
     inkscape:window-maximized="1" />
  <metadata
     id="metadata5">
    <rdf:RDF>
      <cc:Work
         rdf:about="">
        <dc:format>image/svg+xml</dc:format>
        <dc:type
           rdf:resource="http://purl.org/dc/dcmitype/StillImage" />
        <dc:title />
      </cc:Work>
    </rdf:RDF>
  </metadata>
  <g
     inkscape:label="Layer 1"
     inkscape:groupmode="layer"
     id="layer1"
     transform="translate(-38.963806,-70.748359)">
    <path
       id="path859"
       style="fill:#eaeaea;fill-opacity:1;fill-rule:evenodd;stroke:none;stroke-width:0.352778"
       d="m 60.26735,70.748359 c -11.76408,0 -21.303544,9.537347 -21.303544,21.303544 0,9.412107 6.104114,17.397587 14.568664,20.214517 1.064683,0.1972 1.455561,-0.46214 1.455561,-1.02482 0,-0.50765 -0.01976,-2.18616 -0.02893,-3.96628 -5.926666,1.2887 -7.177264,-2.51354 -7.177264,-2.51354 -0.96908,-2.46204 -2.365375,-3.11714 -2.365375,-3.11714 -1.932869,-1.32222 0.145698,-1.29505 0.145698,-1.29505 2.139244,0.15028 3.265663,2.19569 3.265663,2.19569 1.900062,3.25649 4.983692,2.31493 6.199364,1.77059 0.191559,-1.37654 0.743303,-2.31669 1.35255,-2.84868 -4.731808,-0.53834 -9.705975,-2.365376 -9.705975,-10.528301 0,-2.325511 0.832203,-4.226278 2.194984,-5.718175 -0.221192,-0.536575 -0.950384,-2.703336 0.206727,-5.637742 0,0 1.788937,-0.572205 5.859639,2.184048 1.699331,-0.472017 3.521781,-0.708731 5.332236,-0.717198 1.810456,0.0085 3.634317,0.245181 5.336822,0.717198 4.066117,-2.756253 5.852584,-2.184048 5.852584,-2.184048 1.15958,2.934406 0.430388,5.101167 0.209197,5.637742 1.365955,1.491897 2.192161,3.392664 2.192161,5.718175 0,8.18268 -4.983692,9.983961 -9.727494,10.511371 0.764116,0.6611 1.444977,1.95756 1.444977,3.94511 0,2.85044 -0.02434,5.14456 -0.02434,5.84623 0,0.56727 0.383116,1.2312 1.462969,1.02235 8.460317,-2.8201 14.556669,-10.80276 14.556669,-20.212047 0,-11.766197 -9.538052,-21.303544 -21.303544,-21.303544" />
  </g>
</svg>
